<svg width="345" height="150" viewBox="0 0 115 50" fill="none" xmlns="http://www.w3.org/2000/svg">
<title>Steam Deck logo</title>
	<path fill-rule="evenodd" clip-rule="evenodd" d="M28.1744 24.6928C28.1744 15.9508 21.0877 8.86409 12.3457 8.86409V0C25.9832 0 37.0385 11.0553 37.0385 24.6928C37.0385 38.3303 25.9832 49.3856 12.3457 49.3856V40.5215C21.0877 40.5215 28.1744 33.4348 28.1744 24.6928Z" fill="#000000"></path>
	<circle cx="12.3464" cy="24.7191" r="12.3464" fill="url(#paint0_linear)"></circle>
	<path d="M55.2864 17.7725C56.2292 17.7725 57.079 17.9053 57.8359 18.1709C58.5928 18.4232 59.2434 18.7419 59.7879 19.1269L58.7322 20.9992C58.2276 20.6407 57.6699 20.3618 57.0591 20.1627C56.4483 19.9502 55.864 19.844 55.3063 19.844C54.5495 19.844 53.9586 20.0033 53.5336 20.322C53.1087 20.6407 52.8963 21.0723 52.8963 21.6167C52.8963 21.9885 53.0224 22.3072 53.2747 22.5727C53.527 22.8383 53.8324 23.0574 54.1909 23.23C54.5627 23.4026 55.0939 23.6217 55.7844 23.8873C56.7139 24.2326 57.4575 24.5512 58.0152 24.8434C58.5729 25.1222 59.0575 25.5272 59.4692 26.0584C59.8808 26.5762 60.0866 27.2335 60.0866 28.0302C60.0866 28.8801 59.8675 29.6237 59.4293 30.261C59.0044 30.8984 58.3936 31.3897 57.5969 31.735C56.8002 32.0802 55.8773 32.2528 54.8283 32.2528C53.9652 32.2528 53.0888 32.14 52.1991 31.9142C51.3228 31.6752 50.5526 31.3499 49.8887 30.9383L50.7053 28.8867C51.3427 29.232 52.0199 29.5108 52.7369 29.7233C53.454 29.9224 54.1511 30.022 54.8283 30.022C55.7047 30.022 56.3553 29.856 56.7803 29.5241C57.2185 29.1788 57.4376 28.7274 57.4376 28.1697C57.4376 27.6385 57.2118 27.2269 56.7603 26.9348C56.3089 26.6293 55.6117 26.3107 54.669 25.9787C53.7129 25.6467 52.9427 25.3413 52.3585 25.0625C51.7875 24.7703 51.2962 24.3587 50.8846 23.8276C50.4729 23.2831 50.2671 22.5794 50.2671 21.7163C50.2671 20.9328 50.4729 20.2423 50.8846 19.6448C51.2962 19.0473 51.8805 18.5892 52.6373 18.2705C53.3942 17.9385 54.2772 17.7725 55.2864 17.7725Z" fill="#000000"></path>
	<path d="M68.1322 32.0138H65.6226V20.2224H61.2605V18.0713H72.4942V20.2224H68.1322V32.0138Z" fill="#000000"></path>
	<path d="M74.5347 18.0713H83.7368V20.2025H77.0444V23.8674H82.8604V26.0185H77.0444V29.8228H83.7368V32.0138H74.5347V18.0713Z" fill="#000000"></path>
	<path d="M98.352 32.0138H95.6233L94.5875 29.066H88.8313L87.8154 32.0138H85.1863L90.4048 18.0713H93.014L98.352 32.0138ZM91.6994 20.82L89.5483 27.0343H93.8705L91.6994 20.82Z" fill="#000000"></path>
	<path d="M107.794 28.5879L112.395 18.0713H114.964V32.0138H112.554V22.513L108.471 31.715H106.877L102.735 22.6126V32.0138H100.424V18.0713H102.874L107.794 28.5879Z" fill="#000000"></path>
	<defs>
	<linearGradient id="paint0_linear" x1="-9.5" y1="16.9323" x2="19.5" y2="30.9323" gradientUnits="userSpaceOnUse">
	<stop offset="0.106991" stop-color="#1D4ED8"></stop>
	<stop offset="1" stop-color="#0061FF"></stop>
	</linearGradient>
	</defs>
</svg>